# xmcd
#
# Track frame offsets:
#	182
#	13155
#	34272
#	52340
#	69140
#	84440
#	93140
#	108665
#	122992
#	139785
#	158205
#	169552
#	182267
#
# Disc length: 2619 seconds
#
# Revision: 1
# Processed by: cddbd v1.4b41PL1 Copyright (c) Steve Scherf et al.
# Submitted via: audiograbber 1.80
#
DISCID=a60a390d
DTITLE=Corpus delicti - Výskový rozdíl
DYEAR=1900
DGENRE=
TTITLE0=Muzika
TTITLE1=Nocním mestem
TTITLE2=Menuet
TTITLE3=Tri poutníci
TTITLE4=Jsi neco víc
TTITLE5=Slovenská dovolená
TTITLE6=Doma v pokoji
TTITLE7=O tobe
TTITLE8=Cesta
TTITLE9=Karolíno
TTITLE10=Výskový rozdíl
TTITLE11=Pul na pul
TTITLE12=Co hledás
EXTD=
EXTT0=
EXTT1=
EXTT2=
EXTT3=
EXTT4=
EXTT5=
EXTT6=
EXTT7=
EXTT8=
EXTT9=
EXTT10=
EXTT11=
EXTT12=
PLAYORDER=
